<?xml version="1.0" encoding="iso-8859-1"?>
<!-- Uploaded to: SVG Repo, www.svgrepo.com, Generator: SVG Repo Mixer Tools -->
<!DOCTYPE svg PUBLIC "-//W3C//DTD SVG 1.1//EN" "http://www.w3.org/Graphics/SVG/1.1/DTD/svg11.dtd">
<svg fill="#000000" version="1.1" id="Capa_1" xmlns="http://www.w3.org/2000/svg" xmlns:xlink="http://www.w3.org/1999/xlink" 
	 width="800px" height="800px" viewBox="0 0 84.272 84.272"
	 xml:space="preserve">
<g>
	<path d="M82.525,34.063h0.852l0.896,10.75h-8.29l0.896-10.75h0.85c-0.397-0.486-0.643-1.088-0.643-1.75
		c0-1.298,0.916-2.383,2.166-2.74V14.37h2v15.277c1.123,0.423,1.918,1.455,1.918,2.667C83.17,32.975,82.924,33.577,82.525,34.063z
		 M13.011,29.247l26.381,3.872l27.881-3.872c0,0-0.393-4.587-3.651-15.725h19.546V7.985H0v5.537h16.662L13.011,29.247z
		 M76.125,49.538c-0.527-0.156-1.085,0.147-1.24,0.678c-0.156,0.529,0.147,1.084,0.678,1.24c1.523,0.447,2.791,1.434,3.566,2.774
		c0.771,1.338,0.965,2.87,0.541,4.313c-0.424,1.444-1.412,2.631-2.783,3.34c-0.59,0.306-1.02,0.461-1.516,0.552
		c-0.1,0.017-0.164,0.022-0.17,0.022h-0.895c-0.047-0.013-0.084-0.039-0.133-0.045c-0.401-0.054-1.867-0.811-2.758-1.682
		c-1.414-1.311-2.193-3.088-2.193-5.003c0-3.767,3.064-6.83,6.83-6.83c0.553,0,1-0.448,1-1s-0.447-1-1-1H9.066
		c-4.869,0-8.83,3.961-8.83,8.83s3.961,8.83,8.83,8.83h17.822c0.552,0,1-0.448,1-1s-0.448-1-1-1H9.066
		c-3.766,0-6.83-3.063-6.83-6.83s3.064-6.83,6.83-6.83h61.396c-1.978,1.621-3.24,4.08-3.24,6.83c0,2.442,1.033,4.8,2.814,6.451
		c0.096,0.093,0.203,0.186,0.311,0.278H47.965c-0.553,0-1,0.448-1,1c0,0.553,0.447,1,1,1h27.237c0,0,0.003,0,0.009,0
		c0.041,0,0.213-0.002,0.512-0.054c0.709-0.13,1.312-0.346,2.082-0.743c1.863-0.963,3.207-2.58,3.785-4.556
		c0.58-1.974,0.32-4.062-0.729-5.876C79.827,51.44,78.145,50.129,76.125,49.538z M44.719,65.612
		c0.797-0.854,1.285-1.973,1.416-3.247c0.816-0.987,1.273-2.118,1.323-3.284c0.054-1.242-0.362-2.483-1.202-3.601
		c-0.019-1.776-0.615-3.261-1.728-4.301c-1.724-1.61-4.538-1.886-7.388-0.742c-2.939-0.958-5.729-0.498-7.346,1.235
		c-0.797,0.854-1.284,1.974-1.416,3.248c-0.817,0.986-1.273,2.119-1.323,3.285c-0.067,1.553,0.573,3.056,1.854,4.352
		c0.162,1.447,0.741,2.67,1.681,3.548c0.236,0.222,0.496,0.412,0.769,0.583l-3.145,7.777l4.345-1.402l2.384,3.225l0.953-8.856
		c0.595-0.099,1.201-0.255,1.813-0.483c0.656,0.191,1.296,0.289,1.926,0.342l0.914,8.484l2.383-3.225l4.346,1.402l-3.157-7.804
		C44.333,65.984,44.535,65.809,44.719,65.612z"/>
</g>
</svg>